<svg
        width="30"
        height="30"
        viewBox="0 0 30 30"
        fill="none"
        xmlns="http://www.w3.org/2000/svg"
>
    <g>
        <path
                d="M30 12.5C30 14.7656 29.3304 16.8587 27.9911 18.7793C26.6518 20.6999 24.8326 22.2168 22.5335 23.3301C20.2344 24.4434 17.7232 25 15 25C14.2187 25 13.4096 24.9479 12.5725 24.8438C10.3627 27.1224 7.79576 28.6979 4.87165 29.5703C4.32478 29.7526 3.68862 29.8958 2.96317 30C2.77344 30.026 2.60324 29.9674 2.45257 29.8242C2.3019 29.681 2.20424 29.4922 2.1596 29.2578V29.2383C2.12612 29.1862 2.12333 29.1081 2.15123 29.0039C2.17913 28.8997 2.19029 28.8346 2.18471 28.8086C2.17913 28.7826 2.20424 28.7207 2.26004 28.623L2.36049 28.4473L2.47768 28.2812L2.61161 28.1055C2.68973 28.0013 2.86272 27.7767 3.13058 27.4316C3.39844 27.0866 3.59096 26.8392 3.70815 26.6895C3.82533 26.5397 3.99833 26.2826 4.22712 25.918C4.45592 25.5534 4.63728 25.2214 4.77121 24.9219C4.90513 24.6224 5.0558 24.2383 5.22321 23.7695C5.39062 23.3008 5.53571 22.806 5.65848 22.2852C3.90625 21.1263 2.52511 19.694 1.51507 17.9883C0.505022 16.2826 0 14.4531 0 12.5C0 10.8073 0.396205 9.18945 1.18862 7.64648C1.98103 6.10352 3.04687 4.77214 4.38616 3.65234C5.72545 2.53255 7.32143 1.64388 9.17411 0.986328C11.0268 0.328776 12.9687 0 15 0C17.7232 0 20.2344 0.556641 22.5335 1.66992C24.8326 2.7832 26.6518 4.30013 27.9911 6.2207C29.3304 8.14128 30 10.2344 30 12.5Z"
                fill="#7a7a7a"
        />
    </g>
    <defs>
        <clipPath id="clip0_306_2">
            <rect width="30" height="30" fill="white" />
        </clipPath>
    </defs>
</svg>